<svg id="Capa_1" data-name="Capa 1" xmlns="http://www.w3.org/2000/svg" viewBox="0 0 128.4 127.9">
  <defs>
    <style>
      .cls-1 {
        fill: #02242a;
      }
    </style>
  </defs>
  <title>harpe-logo</title>
  <g>
    <path class="cls-1" d="M69.4,130.3C34,130.3,5.2,101.6,5.2,66.4a64.17,64.17,0,0,1,64.2-64c35.4,0,64.2,28.7,64.2,63.9A64.17,64.17,0,0,1,69.4,130.3Zm0-125.7C35.2,4.6,7.3,32.3,7.3,66.4s27.9,61.8,62.1,61.8,62.1-27.7,62.1-61.8A62,62,0,0,0,69.4,4.6Z" transform="translate(-5.2 -2.4)"/>
    <path class="cls-1" d="M79.2,74.3h0L79,49.5c0.1-2.6-.6-2.7-1.5-2.7a2.55,2.55,0,0,0-2.2,1L74.1,49l-0.4.3L63.4,60.2s-0.4.2-.4-1V37.9c0-1.6-.8-1.6-1.8-1.6a1.91,1.91,0,0,0-1.5.4,1.32,1.32,0,0,0-.3,1.1V91.1a1.26,1.26,0,0,0,1.2,1.5,2.17,2.17,0,0,0,2.2-.8L75.1,79.9V101a2.44,2.44,0,0,0,.6,1.7,2.67,2.67,0,0,0,1.8.3,1.66,1.66,0,0,0,1.8-1.9Zm-5.3-.1-10.6,11a1.79,1.79,0,0,1-.3-1.4V66.3L75,54.5c0,2.4.1,4.3,0.1,7.6V72.9l-0.8.9Z" transform="translate(-5.2 -2.4)"/>
  </g>
</svg>
