<?xml version="1.0" ?><!DOCTYPE svg  PUBLIC '-//W3C//DTD SVG 1.1//EN'  'http://www.w3.org/Graphics/SVG/1.1/DTD/svg11.dtd'><svg enable-background="new 0 0 512 512" height="512px" id="icon" version="1.1" viewBox="0 0 512 512" width="512px" xml:space="preserve" xmlns="http://www.w3.org/2000/svg" xmlns:xlink="http://www.w3.org/1999/xlink"><g><path d="M456.837,488.006c-1.145-8.381-4.755-16.584-11.502-22.514c-4.063-3.581-9.393-6.137-15.062-6.731   c-3.105-0.268-4.956-0.104-7.275-0.148h-6.672h-53.439h-42.013V344.406c-0.044-10.12,0.104-19.661-0.104-30.242   c-0.602-10.908-3.997-21.667-9.838-30.896c-3.418-5.528-7.801-10.389-12.72-14.594l33.154-23.183l19.661-13.732l9.883-6.925   c3.559-2.541,6.865-5.469,9.83-8.709c11.955-12.914,17.967-30.985,16.251-48.461c-1.523-17.536-10.879-34.12-24.99-44.597   c-14.035-10.611-32.581-14.861-49.828-11.443c-5.319,1.025-10.469,2.823-15.351,5.186V87.876V68.617v-0.951h75.664   c1.954,17.64,14.013,33.809,30.672,40.198c9.11,3.641,19.26,4.444,28.831,2.333c9.593-2.095,18.457-7.177,25.159-14.295   l-8.114-7.668c-10.328,11.279-27.656,15.054-41.744,9.258c-14.222-5.469-24.246-20.137-24.016-35.398   c-0.237-15.263,9.794-29.93,24.016-35.398c14.088-5.796,31.416-2.037,41.744,9.258l8.114-7.668   c-6.702-7.119-15.566-12.201-25.159-14.297c-9.571-2.109-19.721-1.307-28.831,2.333c-16.645,6.391-28.711,22.544-30.672,40.184   h-75.664v-2.348c0-1.679-0.066-3.655-0.312-5.468c-1.643-14.906-12.254-28.222-26.312-33.318c-13.978-5.32-30.703-2.11-41.67,8.084   c-5.499,4.993-9.6,11.532-11.696,18.68c-1.055,3.581-1.598,7.297-1.643,10.997l-0.015,9.705v38.534v71.391l-25.411,17.744   l-78.674,54.971l-19.668,13.731l-9.831,6.881c-3.262,2.318-6.532,4.414-10.068,7.282c-13.672,11.056-22.202,28.116-22.982,45.652   c-1.018,17.55,5.937,35.324,18.383,47.688c12.364,12.542,30.153,19.334,47.696,18.412c8.761-0.4,17.447-2.675,25.279-6.657   c8.084-4.221,13.947-9.199,20.664-13.642l30.561-21.341c0,0.312,0,0.609,0,0.922v114.206h-42.012H95.673h-6.672   c-2.319,0.044-4.168-0.119-7.275,0.148c-5.669,0.595-10.997,3.15-15.061,6.731c-6.747,5.93-10.358,14.133-11.502,22.514H38.815   v11.161h434.369v-11.161H456.837z M301.482,289.213c4.845,7.638,7.638,16.524,8.144,25.561c0.171,9.361,0.045,19.794,0.082,29.633   v114.206H256h-53.714V344.406c0.044-9.839-0.089-20.271,0.089-29.633c0.505-9.036,3.299-17.923,8.144-25.561   c9.555-15.441,27.299-25.354,45.474-25.16C274.183,263.859,291.927,273.771,301.482,289.213z M226.345,101.371V62.836l0.007-9.556   c0.037-2.719,0.423-5.409,1.196-7.995c1.516-5.187,4.489-9.927,8.501-13.583c7.95-7.401,20.122-9.719,30.271-5.87   c10.194,3.7,17.938,13.419,19.112,24.193c0.178,1.382,0.223,2.615,0.223,4.131v4.83v9.63v19.259v35.637l-17.224,12.037   l-42.086,29.41V101.371z M191.11,329.871l-36.944,25.8c-6.583,4.398-13.145,9.703-19.304,12.839   c-6.435,3.27-13.568,5.127-20.775,5.47c-14.453,0.758-29.113-4.846-39.263-15.145c-10.254-10.209-15.969-24.803-15.128-39.262   c0.638-14.46,7.653-28.474,18.91-37.568c2.668-2.2,6.123-4.458,9.385-6.776l9.831-6.865l19.668-13.733l78.673-54.97l78.666-54.956   l19.668-13.746c5.931-4.131,12.707-7.015,19.795-8.368c14.186-2.823,29.499,0.684,41.017,9.408   c11.605,8.604,19.334,22.306,20.568,36.691c1.419,14.4-3.552,29.291-13.367,39.902c-2.438,2.66-5.149,5.067-8.092,7.163   l-9.779,6.851l-19.661,13.747l-36.394,25.427c-9.853-5.751-21.133-9.006-32.583-8.887c-21.942-0.238-43.431,11.755-54.934,30.376   c-5.84,9.229-9.243,19.987-9.838,30.896C191.125,319.604,191.11,324.76,191.11,329.871z M66.324,488.006   c1.055-5.513,3.7-10.654,7.668-14.087c2.608-2.29,5.721-3.716,8.917-4.058c1.337-0.148,3.945-0.06,6.093-0.09h6.672h53.439H256   h106.887h53.439h6.672c2.149,0.03,4.756-0.059,6.094,0.09c3.195,0.342,6.309,1.768,8.918,4.058   c3.967,3.433,6.612,8.574,7.667,14.087H66.324z" fill="#1D1D1B"/><path d="M256.007,298.516c-5.312-0.03-10.64,2.185-14.37,5.959c-3.775,3.73-5.975,9.05-5.945,14.355   c-0.03,5.305,2.17,10.626,5.945,14.355c3.73,3.775,9.05,5.989,14.355,5.96c5.305,0.029,10.625-2.17,14.364-5.945   c3.773-3.729,5.98-9.05,5.95-14.37c0.03-5.306-2.169-10.625-5.943-14.355C266.632,300.7,261.313,298.5,256.007,298.516z    M255.993,327.984c-4.882,0.134-9.273-4.265-9.14-9.154c-0.133-4.889,4.265-9.287,9.147-9.139c4.882-0.134,9.281,4.265,9.147,9.139   C265.281,323.72,260.882,328.118,255.993,327.984z" fill="#1D1D1B"/><rect fill="#1D1D1B" height="62.951" width="11.167" x="250.412" y="361.332"/><path d="M244.356,62.093c-0.252,9.466,8.233,17.967,17.707,17.713v-11.16c-3.492,0.089-6.644-3.062-6.547-6.554   c-0.104-3.492,3.055-6.643,6.547-6.539V44.378C252.589,44.141,244.104,52.611,244.356,62.093z" fill="#1D1D1B"/></g></svg>