<svg id="Capa_1" data-name="Capa 1" xmlns="http://www.w3.org/2000/svg" viewBox="0 0 105.56 77.36">
  <defs>
    <style>
      .cls-1 {
        fill: #18292e;
      }

      .cls-2 {
        fill: #62848c;
      }

      .cls-3 {
        fill: #757578;
      }
    </style>
  </defs>
  <title>logo</title>
  <g>
    <path class="cls-1" d="M54.66,54.42a1.66,1.66,0,0,1-.83-0.22L35.9,43.91a1.67,1.67,0,0,1-.84-1.45V21.65a1.67,1.67,0,0,1,.84-1.45L53.83,9.91a1.67,1.67,0,0,1,1.67,0L73.41,20.19a1.67,1.67,0,0,1,.84,1.45V42.45a1.67,1.67,0,0,1-.84,1.45L55.49,54.19a1.68,1.68,0,0,1-.83.22M70.9,24.62l-4,2.42a1.67,1.67,0,0,1-1.72-2.87l4.16-2.5L56.38,14.3l0,11.53a1.67,1.67,0,1,1-3.34,0V14.24h0l-12.88,7.4,10.25,5.78a1.67,1.67,0,1,1-1.63,2.92L38.41,24.57v15l10.51-6.22a1.67,1.67,0,0,1,1.7,2.88L40.09,42.46,53,49.86h0V37.52a1.67,1.67,0,0,1,3.34,0V49.85h0l12.89-7.4h0L58.93,36.7a1.67,1.67,0,0,1,1.63-2.92l10.35,5.77V24.62h0Z" transform="translate(-4.25 -9.69)"/>
    <path class="cls-2" d="M59.54,31a1.67,1.67,0,0,1-.85-3.11l2.57-1.52A1.67,1.67,0,1,1,63,29.29l-2.57,1.52a1.67,1.67,0,0,1-.85.23" transform="translate(-4.25 -9.69)"/>
    <path class="cls-3" d="M16.28,70c-0.06-2.65-.77-3.87-4.59-3.87s-4.59,1.43-4.59,5.15v8c0,3.64.3,5.06,4.59,5.06s4.59-.86,4.59-4.5V76.77H11.81V74.21h7.33V79.9c0,4.44-.54,7.15-7.45,7.15-6.31,0-7.45-2.71-7.45-7.74v-8c0-5,1.13-7.74,7.45-7.74,6,0,7.24,1.91,7.36,6.43H16.28Z" transform="translate(-4.25 -9.69)"/>
    <polygon class="cls-3" points="30.17 54.13 30.17 56.63 21.41 56.63 21.41 63.54 29.33 63.54 29.33 66.19 21.41 66.19 21.41 74.47 30.91 74.47 30.91 77.12 18.58 77.12 18.58 54.13 30.17 54.13"/>
    <path class="cls-3" d="M48,69.5c-0.15-1.88-.8-3.22-3.66-3.22-3.19,0-3.81,1.46-3.81,3.75,0,3.19,2.77,3.16,5.66,3.46,2.65,0.27,5.39,1.58,5.39,6.38S49.72,86.93,45,86.93H44.42c-4.71,0-6.85-2.29-7.06-6.19h3.07c0.15,1.94,1,3.43,4,3.43H45c3.1,0,3.72-1.46,3.72-4.14,0-3.75-2.47-3.81-5.33-4.05-2.68-.21-5.75-1.52-5.75-5.9s1.94-6.46,6.76-6.46c4.56,0,6.4,2.12,6.61,5.9H48Z" transform="translate(-4.25 -9.69)"/>
    <polygon class="cls-3" points="56.52 56.9 56.52 77.12 53.69 77.12 53.69 56.9 48.92 56.9 48.92 54.28 61.28 54.28 61.28 56.9 56.52 56.9"/>
    <polygon class="cls-3" points="75.19 54.13 75.19 56.63 66.44 56.63 66.44 63.54 74.36 63.54 74.36 66.19 66.44 66.19 66.44 74.47 75.94 74.47 75.94 77.12 63.61 77.12 63.61 54.13 75.19 54.13"/>
    <polygon class="cls-3" points="79.12 77.12 79.12 54.16 81.98 54.16 81.98 74.5 90.94 74.5 90.94 77.12 79.12 77.12"/>
    <polygon class="cls-3" points="93.74 77.12 93.74 54.16 96.6 54.16 96.6 74.5 105.56 74.5 105.56 77.12 93.74 77.12"/>
  </g>
</svg>
