<svg id="Capa_1" data-name="Capa 1" xmlns="http://www.w3.org/2000/svg" viewBox="0 0 105.57 77.36">
  <defs>
    <style>
      .cls-1 {
        fill: #fff;
      }

      .cls-2 {
        fill: #e0e0e0;
      }
    </style>
  </defs>
  <title>logo_blanco</title>
  <g>
    <path class="cls-1" d="M50.41,44.73a1.66,1.66,0,0,1-.83-0.22L31.65,34.22a1.67,1.67,0,0,1-.84-1.45V12a1.67,1.67,0,0,1,.84-1.45L49.58,0.22a1.67,1.67,0,0,1,1.67,0L69.16,10.5A1.67,1.67,0,0,1,70,12V32.76a1.67,1.67,0,0,1-.84,1.45L51.24,44.5a1.68,1.68,0,0,1-.83.22M66.65,14.93l-4,2.42a1.67,1.67,0,0,1-1.72-2.87L65.09,12l-13-7.37V16.14a1.67,1.67,0,1,1-3.34,0V4.55h0l-12.88,7.4,10.25,5.78a1.67,1.67,0,1,1-1.63,2.92L34.16,14.88v15l10.51-6.22a1.67,1.67,0,0,1,1.7,2.88L35.84,32.77l12.91,7.4h0V27.83a1.67,1.67,0,1,1,3.34,0h0V40.16h0L65,32.76h0L54.68,27a1.67,1.67,0,1,1,1.63-2.92l10.35,5.77V14.93h0Z" transform="translate(0.01 0)"/>
    <path class="cls-2" d="M55.29,21.31a1.67,1.67,0,0,1-.85-3.11L57,16.68a1.7,1.7,0,1,1,1.74,2.92h0l-2.57,1.52a1.67,1.67,0,0,1-.85.23" transform="translate(0.01 0)"/>
    <path class="cls-1" d="M12,60.31c-0.06-2.65-.77-3.87-4.59-3.87s-4.59,1.43-4.59,5.15v8c0,3.64.3,5.06,4.59,5.06S12,73.79,12,70.15V67.08H7.56V64.52h7.33v5.69c0,4.44-.54,7.15-7.45,7.15C1.13,77.36,0,74.65,0,69.62v-8c0-5,1.13-7.74,7.45-7.74,6,0,7.24,1.91,7.36,6.43H12Z" transform="translate(0.01 0)"/>
    <polygon class="cls-1" points="30.18 54.13 30.18 56.63 21.42 56.63 21.42 63.54 29.34 63.54 29.34 66.19 21.42 66.19 21.42 74.47 30.92 74.47 30.92 77.12 18.59 77.12 18.59 54.13 30.18 54.13"/>
    <path class="cls-1" d="M43.75,59.81c-0.15-1.88-.8-3.22-3.66-3.22-3.19,0-3.81,1.46-3.81,3.75,0,3.19,2.77,3.16,5.66,3.46,2.65,0.27,5.39,1.58,5.39,6.38s-1.86,7.06-6.58,7.06H40.17c-4.71,0-6.85-2.29-7.06-6.19h3.07c0.15,1.94,1,3.43,4,3.43h0.57c3.1,0,3.72-1.46,3.72-4.14,0-3.75-2.47-3.81-5.33-4.05-2.68-.21-5.75-1.52-5.75-5.9s1.94-6.46,6.76-6.46c4.56,0,6.4,2.12,6.61,5.9h-3v0Z" transform="translate(0.01 0)"/>
    <polygon class="cls-1" points="56.53 56.9 56.53 77.12 53.7 77.12 53.7 56.9 48.93 56.9 48.93 54.28 61.29 54.28 61.29 56.9 56.53 56.9"/>
    <polygon class="cls-1" points="75.2 54.13 75.2 56.63 66.45 56.63 66.45 63.54 74.37 63.54 74.37 66.19 66.45 66.19 66.45 74.47 75.95 74.47 75.95 77.12 63.62 77.12 63.62 54.13 75.2 54.13"/>
    <polygon class="cls-1" points="79.13 77.12 79.13 54.16 81.99 54.16 81.99 74.5 90.95 74.5 90.95 77.12 79.13 77.12"/>
    <polygon class="cls-1" points="93.75 77.12 93.75 54.16 96.61 54.16 96.61 74.5 105.57 74.5 105.57 77.12 93.75 77.12"/>
  </g>
</svg>
