<?xml version="1.0" encoding="utf-8"?>
<!-- Generator: Adobe Illustrator 16.0.0, SVG Export Plug-In . SVG Version: 6.00 Build 0)  -->
<!DOCTYPE svg PUBLIC "-//W3C//DTD SVG 1.1//EN" "http://www.w3.org/Graphics/SVG/1.1/DTD/svg11.dtd">
<svg version="1.1" id="Capa_1" xmlns="http://www.w3.org/2000/svg" xmlns:xlink="http://www.w3.org/1999/xlink" x="0px" y="0px"
	 width="38.875px" height="33.625px" viewBox="5.375 0 38.875 33.625" enable-background="new 5.375 0 38.875 33.625"
	 xml:space="preserve">
<title>logoENYR</title>
<path d="M39.615,19.396l0.148,0.289h0.098c0.018-0.196,0.035-0.391,0.049-0.587c0-0.113,0-0.229,0-0.338
	c0.035-0.303,0.088-0.604,0.113-0.908c0-0.08-0.064-0.169-0.094-0.25c-0.059-0.117-0.101-0.242-0.126-0.371
	c-0.015-0.187,0.093-0.438,0-0.554c-0.169-0.232-0.062-0.449-0.09-0.677c-0.083-0.646-0.181-1.293-0.28-1.938
	c-0.18-1.206-0.659-2.318-1.221-3.395c-0.07-0.108-0.149-0.211-0.236-0.307c-0.084,0.486,0.469,0.727,0.309,1.246
	c-0.376-0.616-0.704-1.175-1.053-1.72c-0.838-1.27-1.842-2.42-2.986-3.422c-0.262-0.212-0.536-0.409-0.822-0.587
	c-0.465-0.325-0.9-0.716-1.406-0.955c-0.879-0.417-1.795-0.762-2.709-1.09c-0.642-0.243-1.303-0.431-1.978-0.56
	c-0.817-0.141-1.653-0.169-2.482-0.249c-0.145-0.021-0.292-0.031-0.438-0.03c-0.391,0.022-0.78,0.054-1.17,0.091
	c-0.731,0.069-1.475,0.088-2.19,0.233c-0.768,0.173-1.525,0.395-2.265,0.662c-1.275,0.458-2.478,1.096-3.572,1.895
	c-0.102,0.085-0.192,0.182-0.27,0.29c-0.084,0.1-0.149,0.218-0.242,0.308c-0.547,0.535-1.121,1.044-1.642,1.604
	c-0.443,0.466-0.846,0.969-1.206,1.503c-0.357,0.542-0.623,1.143-0.929,1.718c0.169-0.266,0.316-0.539,0.494-0.794
	c0.051-0.073,0.169-0.1,0.256-0.144v-0.014v-0.01c-0.047-0.411,0.299-0.613,0.462-0.912l0.086,0.049l-0.531,0.857
	c0,0,0,0.012,0,0.017h-0.014c-0.129,0.279-0.257,0.559-0.384,0.838c-0.075,0.169-0.169,0.281-0.351,0.125
	c0.132,0.099,0.16,0.287,0.061,0.419c-0.008,0.011-0.017,0.021-0.027,0.031c-0.078,0.095-0.138,0.203-0.179,0.318
	c-0.086,0.288-0.151,0.584-0.227,0.877c-0.183,0.725-0.427,1.438-0.538,2.157c-0.092,0.735-0.133,1.477-0.122,2.218
	c-0.01,0.823-0.066,1.65,0.15,2.461c0.058,0.215,0.085,0.437,0.143,0.652c0.169,0.65,0.283,1.333,0.555,1.94
	c0.389,0.832,0.833,1.637,1.329,2.411c0.393,0.637,0.828,1.247,1.304,1.825c0.743,0.902,1.676,1.604,2.614,2.291
	c1.137,0.833,2.412,1.457,3.767,1.842c0.04,0.015,0.079,0.031,0.117,0.051l-0.108,0.115c0.239,0.01,0.478,0.037,0.713,0.08
	c0.142,0.033,0.256,0.188,0.398,0.229c0.484,0.148,0.976,0.269,1.473,0.362c0.286,0.048,0.589-0.03,0.884-0.022
	c0.677,0.021,1.354,0.085,2.032,0.086c1.646-0.021,3.281-0.295,4.846-0.813c0.207-0.064,0.402-0.169,0.604-0.245l-0.026-0.106
	c-2.45,0.914-5.091,1.205-7.681,0.846c0.753,0,1.718,0.061,2.673-0.016c0.946-0.076,1.885-0.227,2.807-0.451
	c0.932-0.237,1.847-0.535,2.739-0.891c0.898-0.32,1.722-0.818,2.422-1.466l-0.186,0.039l-0.057-0.081
	c0.051-0.017,0.101-0.041,0.145-0.071c0.725-0.677,1.461-1.354,2.164-2.056c0.318-0.31,0.592-0.662,0.813-1.046
	c0.323-0.6,0.612-1.217,0.865-1.849c0.256-0.618,0.691-1.185,0.658-1.899c0-0.058,0.138-0.12,0.241-0.208
	c-0.325-0.281,0.067-0.614,0.013-0.951c-0.043-0.271,0.188-0.775,0.417-0.887v0.525 M33.971,11.243l-1.692-1.85
	C32.65,9.388,33.826,10.654,33.971,11.243z M25.432,28.809c-0.207-0.025-0.415-0.055-0.621-0.085
	c-0.21,0.014-0.422,0.021-0.635,0.021c-5.934,0-10.746-5.035-10.746-11.247c0-6.212,4.812-11.247,10.746-11.247
	c0.264,0,0.525,0.014,0.784,0.034c0.384,0.017,0.767,0.062,1.144,0.134c0.77,0.128,1.527,0.318,2.266,0.567
	c1.075,0.395,2.003,1.051,2.878,1.746c0.771,0.606,1.439,1.344,2.123,2.054c0.185,0.189,0.229,0.508,0.394,0.726
	c0.791,1.057,1.361,2.262,1.676,3.543c0.148,0.593,0.146,1.226,0.169,1.842c0,0.141-0.153,0.29-0.235,0.428l0.094,0.027
	l-0.048,0.024c0.12,0.237,0.3,0.465,0.339,0.718c0.065,0.313-0.102,0.629-0.398,0.75l0.242-0.542l-0.443-0.073
	c0,0.305-0.102,0.637,0.233,0.897c0.09,0.116,0.128,0.265,0.104,0.41c-0.043,0.469-0.119,0.935-0.181,1.404
	c-0.016,0.06-0.012,0.124,0.013,0.181c0.193,0.262,0.023,0.487-0.07,0.712c-0.098,0.235-0.217,0.462-0.352,0.677
	c-0.046,0.071-0.17,0.098-0.248,0.146l-0.079-0.066c-0.169,0.393-0.358,0.782-0.508,1.185c-0.03,0.117-0.008,0.24,0.062,0.339
	c0.094,0.054,0.209,0.06,0.308,0.015c0.22-0.118,0.433-0.25,0.638-0.393c0.133-0.086,0.256-0.181,0.385-0.273l0.081,0.095
	c-0.169,0.194-0.339,0.389-0.508,0.581c-0.339,0.386-0.677,0.789-1.044,1.151c-0.305,0.321-0.646,0.606-1.017,0.846
	c-0.376,0.222-0.813,0.339-1.226,0.508c-0.047,0.013-0.092,0.035-0.129,0.068c-0.485,0.575-1.149,0.828-1.844,1.031
	c-0.396,0.115-0.859,0.127-0.983,0.656c-0.009,0.037-0.077,0.08-0.124,0.088c-0.531,0.086-1.061,0.18-1.596,0.238
	c-0.174-0.005-0.344-0.035-0.508-0.091l0.037,0.112c-0.039,0.031-0.078,0.093-0.119,0.093
	C26.133,28.854,25.781,28.843,25.432,28.809z M31.357,27.393l-1.763,0.809l-0.058-0.124l1.774-0.78L31.357,27.393z M25.847,30.212
	c0.11-0.019,0.218-0.044,0.328-0.056c0.443-0.023,0.885-0.076,1.321-0.159c0.967-0.251,1.93-0.523,2.877-0.847
	c1.04-0.355,1.938-0.977,2.803-1.645c0.397-0.306,0.785-0.626,1.195-0.915c0.314-0.224,0.664-0.396,0.982-0.614
	c0.196-0.154,0.384-0.319,0.562-0.495c-0.546,1.966-7.497,5.252-10.073,4.73H25.847z M38.289,11.64l0.127-0.047
	c0.358,0.581,0.496,1.244,0.619,1.923L38.289,11.64z M38.723,17.663c0.055-0.338-0.204-0.628,0.209-0.824
	c0.08-0.037,0.073-0.257,0.105-0.384C39.191,16.883,39.205,17.286,38.723,17.663z"/>
</svg>
