<?xml version="1.0" ?><svg id="Layer_1" style="enable-background:new 0 0 32 32;" version="1.1" viewBox="0 0 32 32" xml:space="preserve" xmlns="http://www.w3.org/2000/svg" xmlns:xlink="http://www.w3.org/1999/xlink"><style type="text/css">
	.st0{display:none;}
	.st1{display:inline;}
	.st2{fill:none;stroke:#2C3E50;stroke-miterlimit:10;}
	.st3{display:inline;fill:none;stroke:#2C3E50;stroke-miterlimit:10;}
</style><g class="st0" id="Line"><g class="st1"><g><ellipse class="st2" cx="4.2" cy="28" rx="3.5" ry="3.5"/></g></g><g class="st1"><g><ellipse class="st2" cx="28" cy="28" rx="3.5" ry="3.5"/></g></g><g class="st1"><g><ellipse class="st2" cx="16" cy="4" rx="3.5" ry="3.5"/></g></g><line class="st3" x1="16" x2="16" y1="16.9" y2="7.3"/><polyline class="st3" points="25.5,25.1 16,16.4 6.5,25.1  "/></g><g id="Line_copy"><g><path d="M28,24.1c-0.8,0-1.5,0.2-2.1,0.6l-9.3-8.6V7.8C18.5,7.6,20,6,20,3.9C20,1.8,18.2,0,16,0s-4,1.8-4,4c0,2,1.5,3.7,3.5,3.9    v8.3l-9.3,8.5c-0.6-0.3-1.3-0.5-2-0.5c-2.2,0-4,1.8-4,3.9s1.8,4,4,4c2.2,0,4-1.8,4-4C8.2,27,7.8,26,7,25.2l9-8.2l9.1,8.3    C24.4,26.1,24,27,24,28.1c0,2.2,1.8,3.9,4,3.9s4-1.8,4-4S30.2,24.1,28,24.1z M7.2,28c0,1.6-1.3,3-3,3s-3-1.3-3-3s1.4-3,3-3    S7.2,26.4,7.2,28z M13,4c0-1.6,1.4-3,3-3s3,1.3,3,3s-1.4,3-3,3S13,5.6,13,4z M28,31c-1.7,0-3-1.3-3-3s1.4-3,3-3s3,1.3,3,3    S29.6,31,28,31z"/></g></g></svg>