<?xml version="1.0" ?><svg height="60px" version="1.1" viewBox="0 0 60 60" width="60px" xmlns="http://www.w3.org/2000/svg" xmlns:sketch="http://www.bohemiancoding.com/sketch/ns" xmlns:xlink="http://www.w3.org/1999/xlink"><title/><desc/><defs/><g fill="none" fill-rule="evenodd" id="SEO" stroke="none" stroke-width="1"><g fill="#000000" id="Icon-9"><path d="M35,26.0024 L23,26.0024 C22.447,26.0024 22,26.4504 22,27.0024 C22,27.5544 22.447,28.0024 23,28.0024 L35,28.0024 C35.553,28.0024 36,27.5544 36,27.0024 C36,26.4504 35.553,26.0024 35,26.0024 M35,20.0024 L31,20.0024 C30.447,20.0024 30,20.4504 30,21.0024 C30,21.5544 30.447,22.0024 31,22.0024 L35,22.0024 C35.553,22.0024 36,21.5544 36,21.0024 C36,20.4504 35.553,20.0024 35,20.0024 M31,32.0024 L27,32.0024 C26.447,32.0024 26,32.4504 26,33.0024 C26,33.5544 26.447,34.0024 27,34.0024 L31,34.0024 C31.553,34.0024 32,33.5544 32,33.0024 C32,32.4504 31.553,32.0024 31,32.0024 M23,32.0024 L15,32.0024 C14.447,32.0024 14,32.4504 14,33.0024 C14,33.5544 14.447,34.0024 15,34.0024 L23,34.0024 C23.553,34.0024 24,33.5544 24,33.0024 C24,32.4504 23.553,32.0024 23,32.0024 M20,27.0024 C20,26.4504 19.553,26.0024 19,26.0024 L13,26.0024 C12.447,26.0024 12,26.4504 12,27.0024 C12,27.5544 12.447,28.0024 13,28.0024 L19,28.0024 C19.553,28.0024 20,27.5544 20,27.0024 M13,22.0024 L27,22.0024 C27.553,22.0024 28,21.5544 28,21.0024 C28,20.4504 27.553,20.0024 27,20.0024 L13,20.0024 C12.447,20.0024 12,20.4504 12,21.0024 C12,21.5544 12.447,22.0024 13,22.0024 M17,16.0024 L29,16.0024 C29.553,16.0024 30,15.5544 30,15.0024 C30,14.4504 29.553,14.0024 29,14.0024 L17,14.0024 C16.447,14.0024 16,14.4504 16,15.0024 C16,15.5544 16.447,16.0024 17,16.0024 M42,24.0024 C42,14.0774 33.925,6.0024 24,6.0024 C14.075,6.0024 6,14.0774 6,24.0024 C6,33.9274 14.075,42.0024 24,42.0024 C33.925,42.0024 42,33.9274 42,24.0024 M44,24.0024 C44,35.0304 35.028,44.0024 24,44.0024 C12.972,44.0024 4,35.0304 4,24.0024 C4,12.9744 12.972,4.0024 24,4.0024 C35.028,4.0024 44,12.9744 44,24.0024 M46,24.0024 C46,11.8714 36.131,2.0024 24,2.0024 C11.869,2.0024 2,11.8714 2,24.0024 C2,36.1334 11.869,46.0024 24,46.0024 C36.131,46.0024 46,36.1334 46,24.0024 M24,48.0024 C10.767,48.0024 0,37.2354 0,24.0024 C0,10.7694 10.767,0.0024 24,0.0024 C37.233,0.0024 48,10.7694 48,24.0024 C48,37.2354 37.233,48.0024 24,48.0024 M45.271,39.6174 C44.881,40.0074 44.881,40.6414 45.271,41.0314 L47.393,43.1534 C47.588,43.3494 47.844,43.4464 48.1,43.4464 C48.355,43.4464 48.611,43.3494 48.807,43.1534 C49.197,42.7634 49.197,42.1304 48.807,41.7394 L46.686,39.6174 C46.295,39.2274 45.662,39.2274 45.271,39.6174 M60,55.0024 C60,56.3384 59.479,57.5934 58.535,58.5384 C57.561,59.5124 56.279,60.0004 54.999,60.0004 C53.719,60.0004 52.439,59.5134 51.465,58.5384 L39.615,46.6894 C39.225,46.2984 39.225,45.6654 39.615,45.2744 C40.006,44.8844 40.639,44.8844 41.029,45.2744 L52.879,57.1244 C54.05,58.2944 55.952,58.2924 57.121,57.1234 C57.687,56.5574 58,55.8034 58,55.0024 C58,54.2014 57.687,53.4484 57.121,52.8814 L50.822,46.5834 L48.709,48.7074 C48.32,49.1004 47.688,49.1014 47.295,48.7114 C46.903,48.3214 46.901,47.6894 47.291,47.2974 L50.111,44.4614 C50.299,44.2734 50.554,44.1674 50.819,44.1674 L50.82,44.1674 C51.086,44.1674 51.34,44.2724 51.527,44.4604 L58.535,51.4674 C59.479,52.4114 60,53.6674 60,55.0024" id="keyword-search"/></g></g></svg>