<?xml version="1.0" encoding="utf-8"?>
<!-- Generator: Adobe Illustrator 19.2.1, SVG Export Plug-In . SVG Version: 6.00 Build 0)  -->
<svg version="1.1" id="Capa_2" xmlns="http://www.w3.org/2000/svg" xmlns:xlink="http://www.w3.org/1999/xlink" x="0px" y="0px"
	 viewBox="0 0 165.9 167" style="enable-background:new 0 0 165.9 167;" xml:space="preserve">
<style type="text/css">
	.st0{fill:#02242A;}
</style>
<path class="st0" d="M83.5,163.4C39.7,163.4,4,127.8,4,84.2C4,40.5,39.7,5,83.5,5C127.4,5,163,40.5,163,84.2
	C163,127.8,127.4,163.4,83.5,163.4z M83.5,7.7C41.1,7.7,6.6,42,6.6,84.2s34.5,76.5,76.9,76.5s76.9-34.3,76.9-76.5
	S125.9,7.7,83.5,7.7z"/>
<g>
	<path class="st0" d="M98,69.9c-1.3-0.5-2.8-0.1-3.9,1L92,73.2l0,0L72.5,93.7V56c0-2.7-0.6-2.7-2.3-2.7c-0.9,0-2.9,0-3.4,0.8
		s-0.5,0.7-0.5,1.9v46.3c0.1,1.2,0.8,1.7,2,2.1c1.3,0.5,2.4,0,3.4-1.2L95,77.6c0,4.1-0.2,13-0.2,18.7c0,7.5,0,15,0,18.8
		c0,1.5,0.2,3.9,0.7,4.4c0.6,0.7,1.1,0.7,2.1,0.7c1.7,0,3.1-0.8,3.1-3.3V74C100.5,72.1,99.5,70.5,98,69.9z"/>
	<path class="st0" d="M97.4,120.6c-1,0-1.6-0.1-2.4-0.9s-0.8-4.3-0.8-4.7c0-3.9,0-11.3,0-18.8c0-3,0.1-7.1,0.1-10.6
		c0-2.6,0.1-5,0.1-6.9L72,103.2c-1.2,1.4-2.5,1.9-3.9,1.3c-1-0.4-2.2-0.9-2.3-2.5V55.5c0-1.1,0-1.1,0.5-1.9l0.1-0.1
		c0.6-0.9,2.2-1,3.6-1l0,0h0.1c2,0,2.8,0.3,2.8,3.2l-0.1,36.6l18.3-19.2l0.4-0.4l2.1-2.3c1.2-1.3,2.9-1.7,4.4-1.1l0,0
		c1.7,0.7,2.8,2.4,2.8,4.5v42.8C101,119.3,99.7,120.6,97.4,120.6z M95.4,76.4v1.2c0,1.9-0.1,4.9-0.1,8.1c-0.1,3.6-0.1,7.6-0.1,10.6
		c0,7.5,0,15,0,18.8c0,2,0.3,3.8,0.5,4c0.5,0.5,0.9,0.6,1.7,0.6c1.8,0,2.6-0.9,2.6-2.9V74c0-1.7-0.9-3.1-2.2-3.6l0,0
		c-1.2-0.5-2.5-0.1-3.4,0.9L93,72.8l0,0l-0.7,0.8L72,94.9L72.1,56c0-2.3-0.2-2.3-1.9-2.3h-0.1c-0.7,0-2.5,0-2.9,0.6l-0.1,0.1
		c-0.4,0.6-0.4,0.6-0.4,1.4v46.4c0,0.8,0.4,1.2,1.6,1.6c1.1,0.4,2,0.1,2.9-1.1L95.4,76.4z"/>
</g>
</svg>
